<?xml version="1.0" encoding="UTF-8" standalone="no"?>
 
<svg id="marker" xmlns:rdf="http://www.w3.org/1999/02/22-rdf-syntax-ns#" xmlns="http://www.w3.org/2000/svg" viewBox="0 0 60.294621 65.3218" version="1.1" xmlns:cc="http://creativecommons.org/ns#" xmlns:dc="http://purl.org/dc/elements/1.1/">
 
 <g id="layer1" transform="translate(-361.2328,-648.5641)">
 
  <g id="bike" transform="matrix(0.15461925,0,0,0.15461925,309.73069,603.44004)">
 
   <path id="path2991" style="fill:#2a7fff;" d="M147.53125-53c-89.298629,0-161.6875,72.388871-161.6875,161.6875,0,66.44243,40.07689,123.53837,97.375,148.40625l64.3125,111.375,64.3125-111.375c57.30339-24.86561,97.375-81.96,97.375-148.40625,0-89.298629-72.38887-161.6875-161.6875-161.6875z" transform="translate(380.53636,345.33984)"/>
 
   <path id="frame" style="fill:#ffffff;" d="M427.01576,524.40984c-22.50688-4.01911-39.89158-20.03335-45.53106-41.94181-7.61845-29.59641,8.37513-59.8153,36.84062-69.6081,9.48807-3.26412,26.01795-3.24841,34.69044,0.03297,10.8393,4.10123,8.97819,6.15348,18.18685-20.05468l5.62646-19.31722-1.95437-5.17913c-3.52336-9.33697-19.16068-10.59209-5.3872-14.70023l3.48569-4.31897,21.39206-2.56039,11.15051-1.42244,1.42244,6.41385-5.40526,0.43962-6.89788,1.28019c-4.99732,0.92746-8.93802,1.63907-10.63972,4.23618-1.68948,2.57848-1.67299,2.81352,0.4737,6.75l2.22414,4.0785-2.58871,9.19584c-1.42379,5.05771-2.58871,9.89521-2.58871,10.75,0,1.37992,4.53295,1.55416,40.43261,1.55416,40.2002,0,40.43645-0.01207,41.09934-2.10066,0.84299-2.65602,4.34847-4.22722-1.80753-5.74953-6.06976-1.50097-17.99971-2.09035-18.50056-3.75072-0.20127-0.66721,0.67853-3.54617,1.9551-3.81609,4.98139-1.05326,47.86427-1.61454,48.73858-0.75459,1.62373,1.59704-7.86911,10.7911-14.76426,8.09173-6.11839-2.39529-5.37229,3.23689-6.90744,7.84234l-1.3732,4.11959,9.58052,12.05897c5.26928,6.63243,9.75325,12.05896,9.96438,12.05896s2.79105-1.11745,5.73316-2.48322c17.5516-8.14769,38.80876-6.80997,54.79483,3.44827,7.02237,4.50624,16.15616,14.76793,19.88307,22.33835,17.34597,35.23466-3.25469,76.44631-41.50666,83.03413-6.90775,1.18966-9.47032,1.20153-16.49732,0.07638-9.713-1.55522-21.73721-7.09898-28.94669-13.34587-5.78106-5.00919-13.2879-15.91458-15.70917-22.82113-1.01288-2.8892-2.12416-5.53564-2.4695-5.88099-0.34535-0.34534-4.58146,0.1555-9.41358,1.11298-7.44486,1.47519-9.14734,2.18999-11.15541,4.68372-2.2699,2.81887-2.31839,3.20392-1.15089,9.14011,1.47985,7.52441,2.71659,10.02791,4.59731,9.30621,0.83291-0.31961,1.42331,0.06302,1.42331,0.92244,0,1.04161-1.13924,1.46862-3.91821,1.46862-2.15502,0-4.63002,0.27314-5.5,0.60699-1.03799,0.39831-1.58179,0.05452-1.58179-1,0-0.88385,0.675-1.60699,1.5-1.60699,1.87963,0,1.87995,0.01475-0.19635-8.86165-1.06599-4.55724-2.30896-7.56636-3.26281-7.89901-3.31096-1.15469-6.04084-4.62037-6.04084-7.66906,0-2.59769-4.41004-8.17919-28.10896-35.57568-15.45993-17.87203-28.48329-32.63572-28.9408-32.8082-0.45752-0.17248-1.39014,1.54983-2.07251,3.82735-1.20505,4.02211-1.15247,4.22337,1.83227,7.01285,12.49284,11.67557,18.46254,25.79009,18.42608,43.56587-0.05734,27.95755-21.1974,52.49137-48.13608,55.86368-3.025,0.37869-6.175,0.83602-7,1.0163-0.825,0.18029-5.1-0.31507-9.5-1.10079zm17.76981-9.84094c21.70352-4.59907,37.67794-24.32261,37.71832-46.57062,0.02152-11.85552-4.24126-23.48474-11.68027-31.8648l-3.91006-4.4047-4.19413,8.7408c-3.35205,6.98586-5.85149,10.42691-12.4489,17.1388-4.54012,4.61891-8.94396,9.64267-9.78631,11.16391-2.11061,3.81165-6.28289,4.24183-8.48877,0.87523-2.20399-3.3637-1.08737-6.45749,2.93764-8.13924,5.28793-2.20944,16.01187-14.43963,20.08293-22.9037,1.98925-4.13582,3.70297-8.75236,3.80828-10.25899,0.17171-2.45671-0.42755-3.00042-5.80854-5.27017-5.24482-2.21231-7.44743-2.53125-17.5-2.53405-11.17709-0.0031-11.71059,0.09865-19,3.62358-12.50367,6.04638-20.12434,14.37076-24.85333,27.14831-11.14342,30.1091,11.32526,63.58706,43.35333,64.59571,1.65,0.05197,6.04641-0.55107,9.76981-1.34007zm183.29653,0.38549c28.8335-5.26648,46.4541-36.16998,36.28699-63.64113-4.7291-12.77786-12.37059-21.12536-24.81846-27.1115-6.54571-3.14781-8.60846-3.63997-16.74809-3.99597-5.19535-0.22722-11.37539,0.10719-14.03487,0.75946-6.88377,1.68832-13.25191,4.20589-13.25191,5.23898,0,1.68872,24.28382,33.91548,26.39197,35.02445,2.76958,1.45691,3.57416,2.76913,3.59272,5.8595,0.02109,3.51268-1.73606,4.95-6.05147,4.95-3.17649,0-37.31603,6.16119-42.18322,7.61284-2.3809,0.7101-2.2055,2.54817,0.86191,9.03213,5.76214,12.18018,19.37987,22.95771,32.65075,25.84092,7.88532,1.71315,9.9933,1.76557,17.30368,0.43032zm-69.06634-40.75382,5-0.66239,0.24829-8.5c0.41679-14.26863,5.33127-27.1285,14.23125-37.23942,2.21125-2.51211,4.02046-4.88466,4.02046-5.27231,0-1.49898-14.43615-18.44989-15.10797-17.73976-0.39101,0.41332-5.53756,15.82649-11.43676,34.25149-5.89921,18.425-10.9381,34.0625-11.19754,34.75-0.52556,1.39271,5.52094,1.56779,14.24227,0.41239zm35.25-6.2996c10.5875-1.74653,19.25-3.56916,19.25-4.05029,0-1.34366-23.92401-32.8125-24.94553-32.8125-1.45151,0-7.87278,7.99323-10.07379,12.5399-3.57319,7.38123-6.65793,27.41729-4.23068,27.47925,0.4125,0.01052,9.4125-1.40984,20-3.15636zm-62.49012-7.11279c-0.29437-2.30605-1.01415-3.75-1.86929-3.75-0.76482,0-1.39059-0.45-1.39059-1s2.025-1,4.5-1c3.21569,0,4.5,0.40432,4.5,1.41667,0,0.77916-0.50634,1.58544-1.1252,1.79173-1.22718,0.40906,1.63781,14.43579,2.92613,14.43579,0.40203,0,3.557-22.38169,9.34676-40.39419l10.52684-32.75-40.49259-0.26135c-22.27092-0.14374-40.63798-0.11594-40.8157,0.06177-0.17771,0.17772-0.44532,1.30087-0.59468,2.49589-0.20021,1.60191,6.80616,10.32446,26.66732,33.19935,14.81638,17.06462,30.16192,41.34572,30.53615,40.9271s-2.45186-13.11026-2.71515-15.17276z"/>
 
   <path id="frontSpokes" style="fill-rule:evenodd;stroke:#ffffff;stroke-miterlimit:4;stroke-dasharray:none;stroke-width:3;fill:#ffffff;" d="M435,417.36218,437.88073,463.45707,460.26795,423.06091,439.71529,464.42062,479.30127,440.63013,440.82229,466.17236,487,465.36218,440.90511,468.24291,481.30127,490.63013,439.94156,470.07747,463.73205,509.66345,438.18982,471.18447,439,517.36218,436.11927,471.2673,413.73205,511.66345,434.28471,470.30375,394.69873,494.09423,433.17771,468.55201,387,469.36218,433.09489,466.48145,392.69873,444.09423,434.05844,464.64689,410.26795,425.06091,435.81018,463.53989z">
 
    <animateTransform id="animateTransform11" begin="0s" from="0 437 467.36218" repeatCount="indefinite" attributeName="transform" to="-360 437 467.36218" dur="5s" type="rotate"/>
 
   </path>
 
   <path id="rearSpokes" style="fill-rule:evenodd;stroke:#ffffff;stroke-miterlimit:4;stroke-dasharray:none;stroke-width:3;fill:#ffffff;" d="M620,417.36218,621.958,463.47777,645.13397,423.56091,623.77186,464.47719,663.80127,441.49616,624.843,466.24963,671,466.36218,624.88441,468.32018,664.80127,491.49616,623.885,470.13404,646.86603,510.16345,622.11255,471.20518,622,517.36218,620.042,471.24659,596.86603,511.16345,618.22814,470.24718,578.19873,493.22821,617.157,468.47473,571,468.36218,617.11559,466.40418,577.19873,443.22821,618.115,464.59032,595.13397,424.56091,619.88745,463.51919z">
 
    <animateTransform id="animateTransform14" begin="0s" from="0 621 467.36218" repeatCount="indefinite" attributeName="transform" to="-360 621 467.36218" dur="5s" type="rotate"/>
 
   </path>
 
  </g>
 
 </g>
 
</svg>
